<?xml version="1.0" encoding="utf-8"?>
<svg version="1.1" xmlns="http://www.w3.org/2000/svg" xmlns:xlink="http://www.w3.org/1999/xlink" x="0px" y="0px"
	 viewBox="0 0 69.1 69.1" style="enable-background:new 0 0 69.1 69.1;" xml:space="preserve">
<style type="text/css">
	.st0{fill:#5EA5DA;}
	.st1{fill:#FFFFFF;}
	.st2{opacity:0.3;fill:#5EA5DA;}
</style>
<g>
	<g>
		<g>
			<g>
				<g>
					<rect class="st0" width="69.1" height="69.1"/>
				</g>
			</g>
		</g>
	</g>
</g>
<g>
	<path class="st1" d="M51.4,61.1H17.5c-2.5,0-4.6-2-4.6-4.6c0,0,0,0,0,0V11.6c0-2.5,2-4.6,4.6-4.6c0,0,0,0,0,0h22.3L56,23.2v33.3
		C56,59.1,53.9,61.1,51.4,61.1z"/>
	<polygon class="st2" points="56.2,23.3 39.8,7 39.8,23.3 	"/>
	<path class="st0" d="M49.5,44.2L32.7,27.4c-0.5-0.5-1.3-0.7-2-0.6l-8.5,1.4c0,0-1.4,8.5-1.4,8.5c-0.1,0.7,0.1,1.5,0.6,2l16.8,16.8
		c0.9,0.9,2.3,0.9,3.2,0l8-8C50.4,46.5,50.3,45.1,49.5,44.2z M28,36c-1.2,0-2.2-1-2.2-2.2s1-2.2,2.2-2.2c1.2,0,2.2,1,2.2,2.2
		S29.3,36,28,36z"/>
</g>
</svg>
